<mxfile host="app.diagrams.net" agent="Mozilla/5.0 (Windows NT 10.0; Win64; x64; rv:137.0) Gecko/20100101 Firefox/137.0" version="26.2.10">
  <diagram id="C5RBs43oDa-KdzZeNtuy" name="Page-1">
    <mxGraphModel dx="567" dy="756" grid="1" gridSize="10" guides="1" tooltips="1" connect="1" arrows="1" fold="1" page="1" pageScale="1" pageWidth="827" pageHeight="1169" math="0" shadow="0">
      <root>
        <mxCell id="WIyWlLk6GJQsqaUBKTNV-0" />
        <mxCell id="WIyWlLk6GJQsqaUBKTNV-1" parent="WIyWlLk6GJQsqaUBKTNV-0" />
        <mxCell id="WIyWlLk6GJQsqaUBKTNV-10" value="Pilih metode pembayaran" style="rhombus;whiteSpace=wrap;html=1;shadow=0;fontFamily=Helvetica;fontSize=12;align=center;strokeWidth=1;spacing=6;spacingTop=-4;" parent="WIyWlLk6GJQsqaUBKTNV-1" vertex="1">
          <mxGeometry x="166.5" y="450" width="109" height="100" as="geometry" />
        </mxCell>
        <mxCell id="wAHo-fLsAT2h4r4HQaT7-3" value="" style="edgeStyle=none;curved=1;rounded=0;orthogonalLoop=1;jettySize=auto;html=1;fontSize=12;startSize=8;endSize=8;" edge="1" parent="WIyWlLk6GJQsqaUBKTNV-1" source="wAHo-fLsAT2h4r4HQaT7-0">
          <mxGeometry relative="1" as="geometry">
            <mxPoint x="221" y="150" as="targetPoint" />
          </mxGeometry>
        </mxCell>
        <mxCell id="wAHo-fLsAT2h4r4HQaT7-11" value="" style="edgeStyle=none;curved=1;rounded=0;orthogonalLoop=1;jettySize=auto;html=1;fontSize=12;startSize=8;endSize=8;" edge="1" parent="WIyWlLk6GJQsqaUBKTNV-1" source="wAHo-fLsAT2h4r4HQaT7-0" target="wAHo-fLsAT2h4r4HQaT7-6">
          <mxGeometry relative="1" as="geometry" />
        </mxCell>
        <mxCell id="wAHo-fLsAT2h4r4HQaT7-0" value="mulai" style="rounded=1;whiteSpace=wrap;html=1;fontSize=12;glass=0;strokeWidth=1;shadow=0;" vertex="1" parent="WIyWlLk6GJQsqaUBKTNV-1">
          <mxGeometry x="161" y="40" width="120" height="40" as="geometry" />
        </mxCell>
        <mxCell id="wAHo-fLsAT2h4r4HQaT7-15" style="edgeStyle=none;curved=1;rounded=0;orthogonalLoop=1;jettySize=auto;html=1;entryX=0.5;entryY=0;entryDx=0;entryDy=0;fontSize=12;startSize=8;endSize=8;" edge="1" parent="WIyWlLk6GJQsqaUBKTNV-1" source="wAHo-fLsAT2h4r4HQaT7-6" target="wAHo-fLsAT2h4r4HQaT7-8">
          <mxGeometry relative="1" as="geometry" />
        </mxCell>
        <mxCell id="wAHo-fLsAT2h4r4HQaT7-6" value="User Login" style="rounded=0;whiteSpace=wrap;html=1;" vertex="1" parent="WIyWlLk6GJQsqaUBKTNV-1">
          <mxGeometry x="161" y="140" width="120" height="60" as="geometry" />
        </mxCell>
        <mxCell id="wAHo-fLsAT2h4r4HQaT7-16" style="edgeStyle=none;curved=1;rounded=0;orthogonalLoop=1;jettySize=auto;html=1;entryX=0.5;entryY=0;entryDx=0;entryDy=0;fontSize=12;startSize=8;endSize=8;" edge="1" parent="WIyWlLk6GJQsqaUBKTNV-1" source="wAHo-fLsAT2h4r4HQaT7-8" target="wAHo-fLsAT2h4r4HQaT7-12">
          <mxGeometry relative="1" as="geometry" />
        </mxCell>
        <mxCell id="wAHo-fLsAT2h4r4HQaT7-8" value="Klik &quot;topup&quot;" style="rounded=0;whiteSpace=wrap;html=1;" vertex="1" parent="WIyWlLk6GJQsqaUBKTNV-1">
          <mxGeometry x="161" y="250" width="120" height="60" as="geometry" />
        </mxCell>
        <mxCell id="wAHo-fLsAT2h4r4HQaT7-17" style="edgeStyle=none;curved=1;rounded=0;orthogonalLoop=1;jettySize=auto;html=1;fontSize=12;startSize=8;endSize=8;" edge="1" parent="WIyWlLk6GJQsqaUBKTNV-1" source="wAHo-fLsAT2h4r4HQaT7-12" target="WIyWlLk6GJQsqaUBKTNV-10">
          <mxGeometry relative="1" as="geometry" />
        </mxCell>
        <mxCell id="wAHo-fLsAT2h4r4HQaT7-12" value="Input nominal" style="shape=parallelogram;perimeter=parallelogramPerimeter;whiteSpace=wrap;html=1;fixedSize=1;" vertex="1" parent="WIyWlLk6GJQsqaUBKTNV-1">
          <mxGeometry x="161" y="350" width="120" height="60" as="geometry" />
        </mxCell>
        <mxCell id="wAHo-fLsAT2h4r4HQaT7-21" style="edgeStyle=none;curved=1;rounded=0;orthogonalLoop=1;jettySize=auto;html=1;entryX=0.5;entryY=0;entryDx=0;entryDy=0;fontSize=12;startSize=8;endSize=8;" edge="1" parent="WIyWlLk6GJQsqaUBKTNV-1" source="wAHo-fLsAT2h4r4HQaT7-18" target="wAHo-fLsAT2h4r4HQaT7-20">
          <mxGeometry relative="1" as="geometry" />
        </mxCell>
        <mxCell id="wAHo-fLsAT2h4r4HQaT7-18" value="Sistem Generate VA &amp;amp; Instruksi Transfer" style="rounded=0;whiteSpace=wrap;html=1;" vertex="1" parent="WIyWlLk6GJQsqaUBKTNV-1">
          <mxGeometry x="166.5" y="590" width="120" height="60" as="geometry" />
        </mxCell>
        <mxCell id="wAHo-fLsAT2h4r4HQaT7-19" style="edgeStyle=none;curved=1;rounded=0;orthogonalLoop=1;jettySize=auto;html=1;entryX=0.45;entryY=-0.017;entryDx=0;entryDy=0;entryPerimeter=0;fontSize=12;startSize=8;endSize=8;" edge="1" parent="WIyWlLk6GJQsqaUBKTNV-1" source="WIyWlLk6GJQsqaUBKTNV-10" target="wAHo-fLsAT2h4r4HQaT7-18">
          <mxGeometry relative="1" as="geometry" />
        </mxCell>
        <mxCell id="wAHo-fLsAT2h4r4HQaT7-23" style="edgeStyle=none;curved=1;rounded=0;orthogonalLoop=1;jettySize=auto;html=1;entryX=0.5;entryY=1;entryDx=0;entryDy=0;fontSize=12;startSize=8;endSize=8;" edge="1" parent="WIyWlLk6GJQsqaUBKTNV-1" source="wAHo-fLsAT2h4r4HQaT7-20" target="wAHo-fLsAT2h4r4HQaT7-22">
          <mxGeometry relative="1" as="geometry" />
        </mxCell>
        <mxCell id="wAHo-fLsAT2h4r4HQaT7-20" value="User Transfer via Mobile Banking/ATM" style="rounded=0;whiteSpace=wrap;html=1;" vertex="1" parent="WIyWlLk6GJQsqaUBKTNV-1">
          <mxGeometry x="167" y="710" width="120" height="60" as="geometry" />
        </mxCell>
        <mxCell id="wAHo-fLsAT2h4r4HQaT7-25" style="edgeStyle=none;curved=1;rounded=0;orthogonalLoop=1;jettySize=auto;html=1;entryX=0.5;entryY=0;entryDx=0;entryDy=0;fontSize=12;startSize=8;endSize=8;" edge="1" parent="WIyWlLk6GJQsqaUBKTNV-1" source="wAHo-fLsAT2h4r4HQaT7-22" target="wAHo-fLsAT2h4r4HQaT7-24">
          <mxGeometry relative="1" as="geometry" />
        </mxCell>
        <mxCell id="wAHo-fLsAT2h4r4HQaT7-22" value="Sistem menunggu pembayaran" style="shape=trapezoid;perimeter=trapezoidPerimeter;whiteSpace=wrap;html=1;fixedSize=1;direction=west;" vertex="1" parent="WIyWlLk6GJQsqaUBKTNV-1">
          <mxGeometry x="167" y="830" width="120" height="60" as="geometry" />
        </mxCell>
        <mxCell id="wAHo-fLsAT2h4r4HQaT7-24" value="Pembayaran diterima?" style="rhombus;whiteSpace=wrap;html=1;" vertex="1" parent="WIyWlLk6GJQsqaUBKTNV-1">
          <mxGeometry x="180" y="950" width="93" height="100" as="geometry" />
        </mxCell>
        <mxCell id="wAHo-fLsAT2h4r4HQaT7-26" value="Tampilkan notifikasi gagal" style="rounded=0;whiteSpace=wrap;html=1;" vertex="1" parent="WIyWlLk6GJQsqaUBKTNV-1">
          <mxGeometry x="320" y="1020" width="120" height="60" as="geometry" />
        </mxCell>
        <mxCell id="wAHo-fLsAT2h4r4HQaT7-33" style="edgeStyle=none;curved=1;rounded=0;orthogonalLoop=1;jettySize=auto;html=1;entryX=0.5;entryY=0;entryDx=0;entryDy=0;fontSize=12;startSize=8;endSize=8;" edge="1" parent="WIyWlLk6GJQsqaUBKTNV-1" source="wAHo-fLsAT2h4r4HQaT7-27" target="wAHo-fLsAT2h4r4HQaT7-32">
          <mxGeometry relative="1" as="geometry" />
        </mxCell>
        <mxCell id="wAHo-fLsAT2h4r4HQaT7-27" value="Update saldo" style="rounded=0;whiteSpace=wrap;html=1;" vertex="1" parent="WIyWlLk6GJQsqaUBKTNV-1">
          <mxGeometry x="10" y="1020" width="120" height="60" as="geometry" />
        </mxCell>
        <mxCell id="wAHo-fLsAT2h4r4HQaT7-28" style="edgeStyle=none;curved=1;rounded=0;orthogonalLoop=1;jettySize=auto;html=1;entryX=0.558;entryY=-0.067;entryDx=0;entryDy=0;entryPerimeter=0;fontSize=12;startSize=8;endSize=8;" edge="1" parent="WIyWlLk6GJQsqaUBKTNV-1" source="wAHo-fLsAT2h4r4HQaT7-24" target="wAHo-fLsAT2h4r4HQaT7-26">
          <mxGeometry relative="1" as="geometry" />
        </mxCell>
        <mxCell id="wAHo-fLsAT2h4r4HQaT7-29" style="edgeStyle=none;curved=1;rounded=0;orthogonalLoop=1;jettySize=auto;html=1;entryX=0.45;entryY=-0.067;entryDx=0;entryDy=0;entryPerimeter=0;fontSize=12;startSize=8;endSize=8;" edge="1" parent="WIyWlLk6GJQsqaUBKTNV-1" source="wAHo-fLsAT2h4r4HQaT7-24" target="wAHo-fLsAT2h4r4HQaT7-27">
          <mxGeometry relative="1" as="geometry" />
        </mxCell>
        <mxCell id="wAHo-fLsAT2h4r4HQaT7-30" value="YA" style="text;html=1;align=center;verticalAlign=middle;resizable=0;points=[];autosize=1;strokeColor=none;fillColor=none;fontSize=16;" vertex="1" parent="WIyWlLk6GJQsqaUBKTNV-1">
          <mxGeometry x="114" y="981" width="40" height="30" as="geometry" />
        </mxCell>
        <mxCell id="wAHo-fLsAT2h4r4HQaT7-31" value="Tidak" style="text;html=1;align=center;verticalAlign=middle;resizable=0;points=[];autosize=1;strokeColor=none;fillColor=none;fontSize=16;" vertex="1" parent="WIyWlLk6GJQsqaUBKTNV-1">
          <mxGeometry x="294" y="981" width="60" height="30" as="geometry" />
        </mxCell>
        <mxCell id="wAHo-fLsAT2h4r4HQaT7-37" style="edgeStyle=none;curved=1;rounded=0;orthogonalLoop=1;jettySize=auto;html=1;entryX=0.5;entryY=0;entryDx=0;entryDy=0;fontSize=12;startSize=8;endSize=8;" edge="1" parent="WIyWlLk6GJQsqaUBKTNV-1" source="wAHo-fLsAT2h4r4HQaT7-32" target="wAHo-fLsAT2h4r4HQaT7-36">
          <mxGeometry relative="1" as="geometry" />
        </mxCell>
        <mxCell id="wAHo-fLsAT2h4r4HQaT7-32" value="Tampilkan notifikasi sukses" style="rounded=0;whiteSpace=wrap;html=1;" vertex="1" parent="WIyWlLk6GJQsqaUBKTNV-1">
          <mxGeometry x="10" y="1109" width="120" height="60" as="geometry" />
        </mxCell>
        <mxCell id="wAHo-fLsAT2h4r4HQaT7-34" value="End" style="rounded=1;whiteSpace=wrap;html=1;" vertex="1" parent="WIyWlLk6GJQsqaUBKTNV-1">
          <mxGeometry x="320" y="1120" width="120" height="60" as="geometry" />
        </mxCell>
        <mxCell id="wAHo-fLsAT2h4r4HQaT7-35" style="edgeStyle=none;curved=1;rounded=0;orthogonalLoop=1;jettySize=auto;html=1;entryX=0.45;entryY=0.05;entryDx=0;entryDy=0;entryPerimeter=0;fontSize=12;startSize=8;endSize=8;" edge="1" parent="WIyWlLk6GJQsqaUBKTNV-1" source="wAHo-fLsAT2h4r4HQaT7-26" target="wAHo-fLsAT2h4r4HQaT7-34">
          <mxGeometry relative="1" as="geometry" />
        </mxCell>
        <mxCell id="wAHo-fLsAT2h4r4HQaT7-36" value="end" style="rounded=1;whiteSpace=wrap;html=1;" vertex="1" parent="WIyWlLk6GJQsqaUBKTNV-1">
          <mxGeometry x="10" y="1210" width="120" height="60" as="geometry" />
        </mxCell>
      </root>
    </mxGraphModel>
  </diagram>
</mxfile>
